<?xml version="1.0" encoding="utf-8"?>
<!-- Generator: Adobe Illustrator 18.1.1, SVG Export Plug-In . SVG Version: 6.00 Build 0)  -->
<!DOCTYPE svg PUBLIC "-//W3C//DTD SVG 1.1//EN" "http://www.w3.org/Graphics/SVG/1.1/DTD/svg11.dtd">
<svg version="1.1" xmlns="http://www.w3.org/2000/svg" xmlns:xlink="http://www.w3.org/1999/xlink" x="0px" y="0px"
	 viewBox="0 0 249 60" enable-background="new 0 0 249 60" xml:space="preserve">
<g id="alternativa">
	<g>
		<g opacity="0.9">
			<defs>
				<rect id="SVGID_1_" x="-1114.3" y="263.7" opacity="0.9" width="800" height="800"/>
			</defs>
			<clipPath id="SVGID_2_">
				<use xlink:href="#SVGID_1_"  overflow="visible"/>
			</clipPath>
			<g id="Post_Quadrado_1_" opacity="0.9" clip-path="url(#SVGID_2_)">
				<g id="Post_Quadrado_4_" opacity="0.9">
					<defs>
						
							<rect id="SVGID_3_" x="-1081.3" y="161.2" transform="matrix(0.4111 -0.9116 0.9116 0.4111 -941.0561 -159.3202)" opacity="0.9" width="975" height="975"/>
					</defs>
					<clipPath id="SVGID_4_">
						<use xlink:href="#SVGID_3_"  display="none" overflow="visible"/>
					</clipPath>
					<g clip-path="url(#SVGID_4_)">
						<g>
							<g>
								<g>
									<g>
									</g>
								</g>
							</g>
						</g>
						
							<rect x="-1054.3" y="94.9" transform="matrix(0.4111 -0.9116 0.9116 0.4111 -856.4748 -102.3916)" fill="none" width="1093.6" height="1033.6"/>
					</g>
				</g>
			</g>
		</g>
	</g>
</g>
<g id="quadrado">
	<g id="fundo_1_">
		<g>
			<defs>
				<rect id="SVGID_129_" x="-240.3" y="263.7" width="800" height="800"/>
			</defs>
			<clipPath id="SVGID_5_">
				<use xlink:href="#SVGID_129_"  overflow="visible"/>
			</clipPath>
			<g id="Post_Quadrado_2_" opacity="0.7" clip-path="url(#SVGID_5_)">
				<g id="Post_Quadrado_3_" opacity="0.7">
					<defs>
						
							<rect id="SVGID_131_" x="-207.3" y="161.2" transform="matrix(0.4111 -0.9116 0.9116 0.4111 -426.3285 637.4227)" opacity="0.7" width="975" height="975"/>
					</defs>
					<clipPath id="SVGID_6_">
						<use xlink:href="#SVGID_131_"  display="none" overflow="visible"/>
					</clipPath>
					<g opacity="0.7" clip-path="url(#SVGID_6_)">
						<g opacity="0.7">
							<g>
								<polygon opacity="0.4" fill="#4E4E4D" points="117.5,1122 210.6,1164 213.5,-98 120.5,-139.9 								"/>
								<polygon opacity="0.4" fill="#4E4E4D" points="20.5,41.1 18.1,1077.2 111.2,1119.2 114.2,-142.2 103.2,-142.2 								"/>
								<g opacity="0.7">
									<g>
										<g>
											<g>
												<g>
													<polygon fill="#919488" points="77.5,-85.2 103.7,-85.2 103.2,123.2 33.2,123 33.5,12.4 30.2,19.7 30,124.1 
														106.4,124.3 106.9,-86.3 78,-86.4 													"/>
													<g>
														<g>
															<polygon fill="#4E4E4D" points="31.8,16 31.8,18.8 31.7,71.5 31.6,124.2 104.8,124.3 104.9,71.7 105.1,19 
																105.2,-33.7 105.3,-86.3 78,-86.4 															"/>
															<g>
																<g opacity="0.6">
																	<g>
																		<path fill="#30302F" d="M99.6,58.8c0,0.1-0.2,0.2-0.3,0.2c-0.2,0-0.4-0.1-0.4-0.3c0-0.1,0.2-0.3,0.4-0.3
																			C99.4,58.5,99.6,58.6,99.6,58.8z"/>
																	</g>
																	<g>
																		<path fill="#30302F" d="M74.6,58.3c-0.2,0.2-0.2,0.4,0,0.6c0.2,0.2,0.6,0.2,0.8,0c0.2-0.1,0.3-0.4,0-0.6
																			C75.2,58.2,74.9,58.2,74.6,58.3z"/>
																		<path fill="#30302F" d="M76,55.1c-0.1,0.1-0.2,0.3,0,0.4c0.1,0.1,0.4,0.1,0.5,0c0.1-0.1,0.1-0.3,0-0.4
																			C76.3,55,76.1,55,76,55.1z"/>
																		<path fill="#30302F" d="M70.1,58.3c-0.1,0.1-0.2,0.3,0,0.4c0.1,0.1,0.4,0.1,0.5,0c0.1-0.1,0.2-0.3,0-0.4
																			C70.4,58.2,70.2,58.2,70.1,58.3z"/>
																	</g>
																</g>
																<g opacity="0.6">
																	<g>
																		<path fill="#30302F" d="M62.3,44.9c0,0.2-0.2,0.4-0.6,0.4c-0.3,0-0.6-0.2-0.6-0.4c0-0.2,0.3-0.4,0.6-0.4
																			C62,44.5,62.3,44.7,62.3,44.9z"/>
																		<path fill="#30302F" d="M64.6,42.1c0,0.1-0.2,0.3-0.3,0.3c-0.2,0-0.3-0.1-0.4-0.3c0-0.1,0.2-0.3,0.4-0.3
																			C64.5,41.8,64.6,41.9,64.6,42.1z"/>
																		<path fill="#30302F" d="M65.3,47.3c0,0.1-0.2,0.3-0.4,0.2c-0.2,0-0.4-0.1-0.4-0.3c0-0.1,0.2-0.3,0.4-0.3
																			C65.2,47.1,65.3,47.2,65.3,47.3z"/>
																		<path fill="#30302F" d="M53.9,51.5c0,0.1-0.2,0.3-0.3,0.3c-0.2,0-0.4-0.1-0.4-0.3c0-0.1,0.2-0.2,0.4-0.2
																			C53.7,51.3,53.9,51.4,53.9,51.5z"/>
																	</g>
																	<g>
																		<path fill="#30302F" d="M39.6,41.6c-0.2,0.2-0.2,0.4,0,0.6c0.2,0.2,0.6,0.2,0.8,0c0.2-0.1,0.2-0.4,0-0.6
																			C40.2,41.5,39.9,41.4,39.6,41.6z"/>
																		<path fill="#30302F" d="M41,38.4c-0.1,0.1-0.1,0.3,0,0.4c0.1,0.1,0.4,0.1,0.5,0c0.1-0.1,0.2-0.3,0-0.4
																			C41.3,38.3,41.1,38.3,41,38.4z"/>
																		<path fill="#30302F" d="M35.1,41.6c-0.1,0.1-0.2,0.3,0,0.4c0.1,0.1,0.4,0.1,0.5,0c0.1-0.1,0.2-0.3,0-0.4
																			C35.5,41.5,35.3,41.5,35.1,41.6z"/>
																		<path fill="#30302F" d="M38.5,50.5c-0.1,0.1-0.1,0.3,0,0.4c0.1,0.1,0.4,0.1,0.5,0c0.1-0.1,0.1-0.3,0-0.4
																			C38.9,50.4,38.6,50.4,38.5,50.5z"/>
																	</g>
																</g>
																<g opacity="0.6">
																	<g>
																		<path fill="#30302F" d="M97,27.7c0,0.2-0.3,0.4-0.6,0.4c-0.3,0-0.6-0.2-0.6-0.4c0-0.2,0.3-0.4,0.6-0.4
																			C96.7,27.3,97,27.4,97,27.7z"/>
																		<path fill="#30302F" d="M99.3,24.8c0,0.1-0.2,0.3-0.4,0.3c-0.2,0-0.3-0.1-0.3-0.3c0-0.1,0.1-0.3,0.3-0.3
																			C99.2,24.6,99.3,24.7,99.3,24.8z"/>
																		<path fill="#30302F" d="M100,30.1c0,0.1-0.1,0.3-0.3,0.2c-0.2,0-0.4-0.1-0.4-0.3c0-0.1,0.2-0.3,0.4-0.3
																			C99.9,29.8,100,29.9,100,30.1z"/>
																		<path fill="#30302F" d="M88.6,34.3c0,0.1-0.2,0.3-0.3,0.3c-0.2,0-0.4-0.1-0.4-0.3c0-0.1,0.2-0.3,0.4-0.3
																			C88.4,34,88.6,34.1,88.6,34.3z"/>
																	</g>
																	<g>
																		<path fill="#30302F" d="M74.3,24.3c-0.2,0.2-0.2,0.4,0,0.6c0.2,0.2,0.6,0.2,0.8,0c0.2-0.2,0.3-0.4,0-0.6
																			C74.9,24.2,74.6,24.2,74.3,24.3z"/>
																		<path fill="#30302F" d="M75.7,21.2c-0.1,0.1-0.2,0.3,0,0.3c0.1,0.1,0.4,0.1,0.5,0c0.1-0.1,0.2-0.3,0-0.4
																			C76,21.1,75.8,21.1,75.7,21.2z"/>
																		<path fill="#30302F" d="M69.8,24.3c-0.1,0.1-0.2,0.2,0,0.3c0.1,0.1,0.3,0.1,0.5,0c0.1-0.1,0.2-0.3,0-0.4
																			C70.2,24.2,70,24.2,69.8,24.3z"/>
																		<path fill="#30302F" d="M73.2,33.3c-0.1,0.1-0.2,0.3,0,0.4c0.1,0.1,0.4,0.1,0.5,0c0.1-0.1,0.2-0.3,0-0.4
																			C73.6,33.2,73.4,33.2,73.2,33.3z"/>
																	</g>
																</g>
															</g>
															<g opacity="0.6">
																<g>
																	<path fill="#30302F" d="M38.2,7.7c0,0.2,0.2,0.4,0.6,0.4c0.3,0,0.6-0.2,0.6-0.4c0-0.2-0.2-0.4-0.6-0.4
																		C38.4,7.3,38.2,7.5,38.2,7.7z"/>
																	<path fill="#30302F" d="M35.1,10.1c0,0.1,0.2,0.3,0.4,0.3c0.2,0,0.3-0.1,0.3-0.2c0-0.1-0.2-0.3-0.3-0.3
																		C35.2,9.8,35.1,9.9,35.1,10.1z"/>
																	<path fill="#30302F" d="M46.5,14.3c0,0.1,0.2,0.3,0.4,0.3c0.2,0,0.3-0.1,0.3-0.3c0-0.1-0.2-0.3-0.4-0.3
																		C46.7,14.1,46.5,14.2,46.5,14.3z"/>
																</g>
																<g>
																	<path fill="#30302F" d="M60.8,4.5c0.2,0.2,0.2,0.4,0,0.6c-0.2,0.2-0.6,0.2-0.8,0c-0.2-0.2-0.3-0.4,0-0.6
																		C60.2,4.3,60.5,4.3,60.8,4.5z"/>
																	<path fill="#30302F" d="M59.4,1.3c0.1,0.1,0.1,0.3,0,0.4c-0.1,0.1-0.4,0.1-0.5,0c-0.1-0.1-0.2-0.3,0-0.4
																		C59.1,1.2,59.3,1.2,59.4,1.3z"/>
																	<path fill="#30302F" d="M65.3,4.5c0.1,0.1,0.2,0.3,0,0.4c-0.1,0.1-0.4,0.1-0.5,0c-0.1-0.1-0.1-0.3,0-0.4
																		C64.9,4.4,65.2,4.4,65.3,4.5z"/>
																	<path fill="#30302F" d="M61.9,13.4c0.1,0.1,0.2,0.2,0,0.3c-0.1,0.1-0.4,0.1-0.5,0c-0.1-0.1-0.1-0.3,0-0.3
																		C61.5,13.3,61.7,13.3,61.9,13.4z"/>
																</g>
															</g>
														</g>
														<g>
															
																<rect x="67.6" y="25.6" transform="matrix(-1 -3.060964e-003 3.060964e-003 -1 136.7545 61.4614)" fill="#ECC743" width="1.6" height="10"/>
															<rect x="67.6" y="49" fill="#ECC743" width="1.6" height="10"/>
															<rect x="67.7" y="2.2" fill="#ECC743" width="1.6" height="10"/>
														</g>
													</g>
												</g>
											</g>
										</g>
										<g>
											<g>
												<g>
													<path fill="#919488" d="M205.9,124.6l0.5-210.6L130-86.3l-0.5,210.6L205.9,124.6z M203.2-84.9l-0.5,208.3l-70-0.2
														l0.5-208.3L203.2-84.9z"/>
													<g>
														<g>
															<polygon fill="#4E4E4D" points="204.7,-33.4 204.6,19.2 204.4,71.9 204.3,124.6 131.1,124.4 131.2,71.7 131.3,19.1 
																131.5,-33.6 131.6,-86.3 204.8,-86.1 															"/>
															<g>
																<g opacity="0.6">
																	<g>
																		<path fill="#30302F" d="M199.1,59c0,0.1-0.2,0.3-0.3,0.3c-0.2,0-0.4-0.1-0.4-0.3c0-0.1,0.2-0.3,0.4-0.3
																			C198.9,58.8,199.1,58.9,199.1,59z"/>
																	</g>
																	<g>
																		<path fill="#30302F" d="M174.1,58.5c-0.2,0.2-0.2,0.4,0,0.6c0.2,0.2,0.6,0.2,0.8,0c0.2-0.2,0.3-0.4,0-0.6
																			C174.7,58.4,174.3,58.4,174.1,58.5z"/>
																		<path fill="#30302F" d="M175.5,55.4c-0.1,0.1-0.2,0.3,0,0.4c0.1,0.1,0.4,0.1,0.5,0c0.1-0.1,0.2-0.3,0-0.4
																			C175.8,55.3,175.6,55.3,175.5,55.4z"/>
																		<path fill="#30302F" d="M169.6,58.5c-0.1,0.1-0.2,0.3,0,0.4c0.1,0.1,0.4,0.1,0.5,0c0.1-0.1,0.2-0.3,0-0.4
																			C169.9,58.4,169.7,58.4,169.6,58.5z"/>
																	</g>
																</g>
																<g opacity="0.6">
																	<g>
																		<path fill="#30302F" d="M161.7,45.2c0,0.2-0.2,0.4-0.6,0.4c-0.3,0-0.6-0.2-0.6-0.4c0-0.2,0.3-0.4,0.6-0.4
																			C161.5,44.7,161.7,44.9,161.7,45.2z"/>
																		<path fill="#30302F" d="M164.1,42.3c0,0.1-0.2,0.3-0.3,0.2c-0.2,0-0.4-0.1-0.4-0.3c0-0.1,0.2-0.2,0.4-0.2
																			C164,42,164.1,42.2,164.1,42.3z"/>
																		<path fill="#30302F" d="M164.8,47.6c0,0.1-0.2,0.3-0.4,0.2c-0.2,0-0.4-0.1-0.4-0.3c0-0.1,0.2-0.3,0.4-0.3
																			C164.7,47.3,164.8,47.4,164.8,47.6z"/>
																		<path fill="#30302F" d="M153.3,51.7c0,0.1-0.2,0.3-0.3,0.3c-0.2,0-0.4-0.1-0.4-0.3c0-0.1,0.2-0.2,0.4-0.2
																			C153.2,51.5,153.3,51.6,153.3,51.7z"/>
																	</g>
																	<g>
																		<path fill="#30302F" d="M139.1,41.8c-0.2,0.2-0.2,0.4,0,0.6c0.2,0.2,0.6,0.2,0.8,0c0.2-0.2,0.2-0.4,0-0.6
																			C139.7,41.7,139.4,41.7,139.1,41.8z"/>
																		<path fill="#30302F" d="M140.5,38.6c-0.1,0.1-0.1,0.3,0,0.4c0.1,0.1,0.4,0.1,0.5,0c0.1-0.1,0.2-0.2,0-0.4
																			C140.8,38.6,140.6,38.6,140.5,38.6z"/>
																		<path fill="#30302F" d="M134.6,41.8c-0.1,0.1-0.1,0.3,0,0.4c0.1,0.1,0.4,0.1,0.5,0c0.1-0.1,0.2-0.3,0-0.4
																			C135,41.7,134.7,41.7,134.6,41.8z"/>
																		<path fill="#30302F" d="M138,50.7c-0.1,0.1-0.1,0.3,0,0.4c0.1,0.1,0.3,0.1,0.5,0c0.1-0.1,0.1-0.3,0-0.3
																			C138.4,50.7,138.1,50.6,138,50.7z"/>
																	</g>
																</g>
																<g opacity="0.6">
																	<g>
																		<path fill="#30302F" d="M196.4,27.9c0,0.2-0.3,0.4-0.6,0.4c-0.3,0-0.6-0.2-0.6-0.4c0-0.2,0.3-0.4,0.6-0.4
																			C196.2,27.5,196.4,27.7,196.4,27.9z"/>
																		<path fill="#30302F" d="M198.8,25c0,0.1-0.2,0.3-0.4,0.3c-0.2,0-0.3-0.1-0.3-0.3c0-0.1,0.1-0.3,0.3-0.2
																			C198.7,24.8,198.8,24.9,198.8,25z"/>
																		<path fill="#30302F" d="M199.5,30.3c0,0.1-0.1,0.3-0.3,0.3c-0.2,0-0.4-0.1-0.3-0.2c0-0.1,0.2-0.3,0.3-0.3
																			C199.4,30.1,199.5,30.2,199.5,30.3z"/>
																		<path fill="#30302F" d="M188,34.5c0,0.1-0.2,0.3-0.3,0.3c-0.2,0-0.4-0.1-0.4-0.3c0-0.1,0.2-0.3,0.4-0.3
																			C187.9,34.2,188,34.4,188,34.5z"/>
																	</g>
																	<g>
																		<path fill="#30302F" d="M173.8,24.6c-0.2,0.2-0.2,0.4,0,0.6c0.2,0.2,0.6,0.2,0.8,0c0.2-0.2,0.2-0.4,0-0.6
																			C174.4,24.4,174.1,24.4,173.8,24.6z"/>
																		<path fill="#30302F" d="M175.2,21.4c-0.1,0.1-0.2,0.3,0,0.4c0.1,0.1,0.4,0.1,0.5,0c0.1-0.1,0.2-0.3,0-0.4
																			C175.5,21.3,175.3,21.3,175.2,21.4z"/>
																		<path fill="#30302F" d="M169.3,24.6c-0.1,0.1-0.2,0.3,0,0.4c0.1,0.1,0.3,0.1,0.5,0c0.1-0.1,0.2-0.3,0-0.4
																			C169.7,24.5,169.4,24.5,169.3,24.6z"/>
																		<path fill="#30302F" d="M172.7,33.5c-0.1,0.1-0.2,0.3,0,0.4c0.1,0.1,0.4,0.1,0.5,0c0.1-0.1,0.2-0.3,0-0.4
																			C173.1,33.4,172.9,33.4,172.7,33.5z"/>
																	</g>
																</g>
															</g>
															<g opacity="0.6">
																<g>
																	<path fill="#30302F" d="M137.6,7.9c0,0.2,0.2,0.4,0.6,0.4c0.3,0,0.6-0.2,0.6-0.4c0-0.2-0.2-0.4-0.6-0.4
																		C137.9,7.5,137.6,7.7,137.6,7.9z"/>
																	<path fill="#30302F" d="M135.3,5.1c0,0.1,0.2,0.3,0.4,0.3c0.2,0,0.3-0.1,0.3-0.3c0-0.1-0.2-0.3-0.3-0.3
																		C135.4,4.8,135.3,4.9,135.3,5.1z"/>
																	<path fill="#30302F" d="M134.6,10.3c0,0.1,0.2,0.3,0.4,0.3c0.2,0,0.3-0.1,0.3-0.2c0-0.1-0.2-0.3-0.3-0.3
																		C134.7,10.1,134.6,10.2,134.6,10.3z"/>
																	<path fill="#30302F" d="M146,14.6c0,0.1,0.2,0.3,0.3,0.3c0.2,0,0.4-0.1,0.4-0.3c0-0.1-0.2-0.3-0.3-0.3
																		C146.2,14.3,146,14.4,146,14.6z"/>
																</g>
																<g>
																	<path fill="#30302F" d="M160.3,4.7c0.2,0.2,0.2,0.4,0,0.6c-0.2,0.2-0.6,0.2-0.8,0c-0.2-0.2-0.3-0.4,0-0.6
																		S160,4.6,160.3,4.7z"/>
																	<path fill="#30302F" d="M158.9,1.5c0.1,0.1,0.1,0.3,0,0.4c-0.1,0.1-0.4,0.1-0.5,0c-0.1-0.1-0.2-0.3,0-0.4
																		C158.6,1.4,158.8,1.4,158.9,1.5z"/>
																	<path fill="#30302F" d="M164.8,4.7c0.1,0.1,0.1,0.3,0,0.4c-0.1,0.1-0.4,0.1-0.5,0c-0.1-0.1-0.1-0.3,0-0.4
																		C164.4,4.6,164.7,4.6,164.8,4.7z"/>
																	<path fill="#30302F" d="M161.3,13.6c0.1,0.1,0.2,0.2,0,0.3c-0.1,0.1-0.4,0.1-0.5,0c-0.1-0.1-0.1-0.3,0-0.4
																		C161,13.5,161.2,13.5,161.3,13.6z"/>
																</g>
															</g>
														</g>
														<g>
															<path fill="#ECC743" d="M169-86.2l0,4.9l-1.6,0l0-4.9L169-86.2z M169-67.9l0,10l-1.6,0l0-10L169-67.9z M168.9-44.5
																l0,10l-1.6,0l0-10L168.9-44.5z M168.9-21l0,10l-1.6,0l0-10L168.9-21z M168.8,2.4l0,10l-1.6,0l0-10L168.8,2.4z
																 M168.7,25.8l0,10l-1.6,0l0-10L168.7,25.8z M168.7,49.3l0,10l-1.6,0l0-10L168.7,49.3z M168.6,72.7l0,10l-1.6,0l0-10
																L168.6,72.7z M168.6,96.1l0,10l-1.6,0l0-10.1L168.6,96.1z"/>
														</g>
													</g>
												</g>
											</g>
										</g>
									</g>
								</g>
							</g>
						</g>
						
							<rect x="-180.3" y="94.9" transform="matrix(0.4111 -0.9116 0.9116 0.4111 -341.7472 694.3513)" fill="none" width="1093.6" height="1033.6"/>
					</g>
				</g>
			</g>
		</g>
	</g>
	<g id="logos_2_">
		<g id="mobiliza_x2B__1_">
			<g>
				<path fill="#412773" d="M36.5,48.9h-6.9V38c0-1-0.2-1.6-0.6-2.1c-0.4-0.4-0.8-0.6-1.4-0.6c-0.6,0-1.1,0.3-1.8,0.8
					c-0.6,0.5-1.1,1.2-1.4,2v10.8h-6.9V38c0-1-0.2-1.6-0.6-2.1c-0.4-0.4-0.8-0.6-1.4-0.6c-0.6,0-1.1,0.3-1.8,0.8
					c-0.6,0.5-1.1,1.2-1.4,2v10.8H5.6V29.6h6.2v2.9c0.7-1.1,1.6-1.9,2.8-2.4c1.2-0.6,2.6-0.8,4.2-0.8c0.8,0,1.5,0.1,2,0.3
					c0.6,0.2,1.1,0.4,1.5,0.8c0.4,0.3,0.8,0.7,1,1.1c0.3,0.4,0.5,0.8,0.6,1.2c0.7-1.1,1.6-1.9,2.8-2.5c1.2-0.6,2.5-0.9,4-0.9
					c1.3,0,2.3,0.2,3,0.7c0.7,0.5,1.3,1.1,1.7,1.8c0.4,0.7,0.6,1.5,0.8,2.3c0.1,0.8,0.2,1.5,0.2,2.2V48.9z"/>
				<path fill="#39C8C6" d="M49.3,49.3c-1.7,0-3.2-0.3-4.5-0.8c-1.3-0.6-2.4-1.3-3.3-2.2c-0.9-0.9-1.6-2-2-3.2
					c-0.5-1.2-0.7-2.5-0.7-3.8s0.2-2.6,0.7-3.8c0.4-1.2,1.1-2.3,2-3.2c0.9-0.9,2-1.7,3.3-2.2c1.3-0.6,2.8-0.8,4.5-0.8
					c1.7,0,3.2,0.3,4.5,0.8s2.4,1.3,3.3,2.2c0.9,0.9,1.6,2,2,3.2c0.4,1.2,0.7,2.5,0.7,3.8s-0.2,2.6-0.7,3.8c-0.5,1.2-1.1,2.3-2,3.2
					c-0.9,0.9-2,1.7-3.3,2.2S51,49.3,49.3,49.3z M45.9,39.2c0,1.3,0.3,2.3,0.9,3c0.6,0.7,1.4,1.1,2.4,1.1c1,0,1.8-0.4,2.4-1.1
					c0.6-0.7,0.9-1.7,0.9-3s-0.3-2.3-0.9-3c-0.6-0.7-1.4-1.1-2.4-1.1c-1,0-1.8,0.4-2.4,1.1C46.2,36.9,45.9,37.9,45.9,39.2z"/>
				<path fill="#39C8C6" d="M74.5,49.3c-2.9,0-5-1.1-6.2-3.4v3h-6V22.1h6.9v10.3c0.6-1.1,1.3-1.9,2.4-2.4c1-0.6,2.2-0.8,3.6-0.8
					c1.2,0,2.3,0.3,3.3,0.8c1,0.5,1.9,1.2,2.6,2.1c0.7,0.9,1.3,2,1.7,3.2c0.4,1.2,0.6,2.6,0.6,4c0,1.4-0.2,2.8-0.7,4
					c-0.4,1.2-1.1,2.3-1.9,3.1C80,47.3,79.1,48,78,48.5C76.9,49,75.7,49.3,74.5,49.3z M72.5,43.4c1.1,0,2.1-0.4,2.8-1.1s1-1.7,1-2.9
					c0-0.6-0.1-1.1-0.3-1.7c-0.2-0.5-0.4-1-0.7-1.4c-0.3-0.4-0.7-0.7-1.1-0.9s-0.9-0.3-1.4-0.3c-0.7,0-1.4,0.3-2.1,0.8
					c-0.7,0.5-1.2,1.2-1.5,2.1v3.4C70.1,42.7,71.2,43.4,72.5,43.4z"/>
				<path fill="#39C8C6" d="M85.9,28v-5.9h6.9V28H85.9z M85.9,48.9V29.6h6.9v19.3H85.9z"/>
				<path fill="#39C8C6" d="M96.2,22.1h6.9v18.6c0,1.5,0.6,2.2,1.8,2.2c0.3,0,0.6,0,0.9-0.1c0.3-0.1,0.7-0.2,0.9-0.4l0.9,5.6
					c-0.8,0.4-1.8,0.7-2.8,0.9c-1,0.2-2,0.3-2.9,0.3c-1.8,0-3.3-0.5-4.3-1.4c-1-1-1.5-2.3-1.5-4.1V22.1z"/>
				<path fill="#39C8C6" d="M109.5,28v-5.9h6.9V28H109.5z M109.5,48.9V29.6h6.9v19.3H109.5z"/>
				<path fill="#39C8C6" d="M119,44.8l8.8-10.4h-8.2v-4.8H135v4.1l-8.7,10.4h9v4.8H119V44.8z"/>
				<path fill="#39C8C6" d="M143.6,49.3c-0.9,0-1.8-0.2-2.7-0.5c-0.8-0.3-1.5-0.8-2.1-1.3c-0.6-0.5-1.1-1.2-1.4-2s-0.5-1.6-0.5-2.5
					c0-1,0.2-1.9,0.6-2.7c0.4-0.8,1-1.5,1.7-2.1c0.7-0.6,1.6-1,2.6-1.4s2.1-0.5,3.3-0.5c1.6,0,2.8,0.2,3.9,0.7v-0.6
					c0-0.9-0.3-1.6-0.8-2c-0.5-0.4-1.4-0.7-2.5-0.7c-1.1,0-2.1,0.2-3,0.5c-0.9,0.4-1.9,0.9-2.9,1.6l-2-4.3c2.5-1.6,5.4-2.5,8.6-2.5
					c3.1,0,5.4,0.7,7.1,2.1c1.7,1.4,2.5,3.4,2.5,6.2v3.7c0,0.7,0.1,1.1,0.4,1.4c0.2,0.3,0.7,0.4,1.3,0.5v5.9
					c-0.6,0.1-1.2,0.2-1.8,0.3s-1.1,0.1-1.5,0.1c-1.2,0-2.2-0.2-2.8-0.7s-1.1-1.1-1.3-2l-0.1-0.7c-0.9,1.1-1.8,1.9-3,2.5
					S144.9,49.3,143.6,49.3z M145.7,44.3c0.4,0,0.8-0.1,1.3-0.2c0.4-0.1,0.8-0.3,1.2-0.5c0.3-0.2,0.5-0.4,0.7-0.6
					c0.2-0.2,0.3-0.5,0.3-0.7v-1.4c-0.4-0.1-0.9-0.3-1.3-0.4c-0.5-0.1-0.9-0.1-1.3-0.1c-0.9,0-1.6,0.2-2.1,0.6
					c-0.6,0.4-0.8,0.9-0.8,1.6c0,0.5,0.2,1,0.6,1.3C144.5,44.1,145,44.3,145.7,44.3z"/>
				<path fill="#39C8C6" d="M212,49.3c-0.8,0-1.7-0.1-2.6-0.2c-0.9-0.1-1.8-0.3-2.7-0.5c-0.9-0.2-1.7-0.4-2.6-0.7
					c-0.8-0.3-1.5-0.6-2.2-0.9l2.7-4.7c1.3,0.7,2.6,1.2,3.8,1.6c1.2,0.4,2.3,0.5,3.4,0.5c1.2,0,1.8-0.3,1.8-0.9
					c0-0.3-0.2-0.6-0.7-0.8c-0.5-0.2-1.4-0.5-2.8-0.9c-1.4-0.4-2.5-0.7-3.4-1.1s-1.7-0.8-2.2-1.2c-0.6-0.5-1-1-1.2-1.5
					s-0.4-1.2-0.4-1.9c0-1,0.2-1.9,0.6-2.7c0.4-0.8,1-1.6,1.7-2.2c0.7-0.6,1.6-1.1,2.6-1.4s2.1-0.5,3.3-0.5c1.3,0,2.7,0.2,4.1,0.6
					c1.5,0.4,3,0.9,4.5,1.6l-2.7,4.4c-1.4-0.6-2.5-1.1-3.4-1.4c-0.9-0.3-1.8-0.4-2.6-0.4c-0.5,0-1,0.1-1.3,0.2
					c-0.3,0.2-0.5,0.4-0.5,0.8c0,0.2,0,0.4,0.1,0.5c0.1,0.1,0.3,0.3,0.5,0.4c0.2,0.1,0.6,0.3,1,0.4c0.4,0.1,1,0.3,1.6,0.4
					c1.5,0.4,2.7,0.8,3.7,1.2c1,0.4,1.8,0.8,2.4,1.3c0.6,0.5,1,1,1.3,1.6c0.3,0.6,0.4,1.3,0.4,2.1c0,2-0.7,3.5-2.2,4.7
					C216.6,48.7,214.5,49.3,212,49.3z"/>
				<path fill="#39C8C6" d="M235.5,49.3c-1.4,0-2.6-0.3-3.6-0.8c-1-0.6-1.8-1.4-2.4-2.4v10.7h-6.9V29.6h6v2.9
					c0.7-1.1,1.5-1.9,2.5-2.4c1-0.6,2.2-0.8,3.7-0.8c1.3,0,2.4,0.3,3.5,0.8c1.1,0.5,2,1.2,2.8,2.1c0.8,0.9,1.4,1.9,1.8,3.2
					c0.5,1.2,0.7,2.5,0.7,4c0,1.4-0.2,2.8-0.6,4c-0.4,1.2-1,2.3-1.7,3.2c-0.7,0.9-1.6,1.6-2.6,2.1C237.8,49,236.7,49.3,235.5,49.3z
					 M233.1,43.4c0.5,0,1-0.1,1.4-0.3c0.4-0.2,0.8-0.5,1.1-0.9c0.3-0.4,0.5-0.8,0.7-1.4c0.2-0.5,0.3-1.1,0.3-1.7
					c0-1.2-0.3-2.2-1-2.9c-0.7-0.7-1.6-1.1-2.8-1.1c-1.3,0-2.4,0.7-3.3,2v3.3c0.3,0.9,0.8,1.6,1.5,2.1
					C231.7,43.1,232.4,43.4,233.1,43.4z"/>
			</g>
			<g>
				<g>
					<path fill="#412773" d="M192,8.2c-3.2-2.5-6.9-3.7-10.9-3.6c-5.7,0.2-10.2,2.6-13.6,7.2c-2.2,3.1-3.3,6.5-3.3,10.3
						c0,5.5,0,11.1,0,16.6v0.5c1.2,0,2.3,0,3.4,0c4.5,0,9,0,13.6,0c3.4,0,6.6-0.8,9.4-2.7c4.2-2.7,6.9-6.6,7.8-11.6
						C199.6,18.3,197.4,12.6,192,8.2z M191.1,24c-0.6,0.5-1.3,0.8-2.1,0.8h-4.6v4.7c0,0.8-0.3,1.5-0.9,2.1c-0.6,0.6-1.3,0.9-2.1,0.9
						c-0.8,0-1.5-0.3-2.1-0.9c-0.5-0.6-0.8-1.3-0.8-2.1v-4.7h-4.7c-0.8,0-1.5-0.3-2-0.8c-0.6-0.6-0.9-1.3-0.9-2.1
						c0-0.8,0.3-1.5,0.9-2c0.6-0.6,1.3-0.9,2-0.9h4.7v-4.7c0-0.8,0.3-1.5,0.9-2c0.6-0.5,1.3-0.8,2.1-0.8c0.8,0,1.5,0.3,2,0.8
						c0.5,0.5,0.8,1.2,0.8,2V19h4.7c0.8,0,1.5,0.3,2.1,0.8c0.6,0.6,0.9,1.3,0.9,2.1C192,22.7,191.7,23.5,191.1,24z"/>
				</g>
			</g>
		</g>
	</g>
	<g id="textos_2_">
		<g id="tira-dúvidas_1_">
		</g>
	</g>
</g>
<g id="meetup">
	<g id="textos">
		<g id="tira_dúvidas">
		</g>
	</g>
	<g id="logos">
	</g>
</g>
<g id="stories_1_">
	<g id="outros">
	</g>
	<g id="textos_1_">
	</g>
</g>
</svg>
