<?xml version="1.0" encoding="utf-8"?>
<!-- Generator: Adobe Illustrator 18.1.1, SVG Export Plug-In . SVG Version: 6.00 Build 0)  -->
<!DOCTYPE svg PUBLIC "-//W3C//DTD SVG 1.1//EN" "http://www.w3.org/Graphics/SVG/1.1/DTD/svg11.dtd">
<svg version="1.1" id="Layer_1" xmlns="http://www.w3.org/2000/svg" xmlns:xlink="http://www.w3.org/1999/xlink" x="0px" y="0px"
	 viewBox="-196.7 -174.1 988.7 1096" enable-background="new -196.7 -174.1 988.7 1096" xml:space="preserve">
<rect x="-106.7" y="294.9" fill="#FFFFFF" width="808.7" height="252.2"/>
<g>
	<path fill="#009DA5" d="M-65.2,508.8c-1.7,0-3.3-0.3-4.7-1c-1.4-0.6-2.7-1.5-3.7-2.7c-1-1.2-1.8-2.5-2.4-4.1
		c-0.6-1.6-0.9-3.3-0.9-5.1c0-1.8,0.3-3.5,0.8-5.1c0.5-1.6,1.3-2.9,2.3-4.1c1-1.1,2.1-2.1,3.5-2.7c1.3-0.7,2.8-1,4.4-1
		c1.7,0,3.3,0.4,4.7,1.2c1.4,0.8,2.5,1.9,3.2,3.3v-13.7h7.6v26c0,0.8,0.1,1.3,0.4,1.6c0.2,0.3,0.7,0.5,1.3,0.5v6.4
		c-0.7,0.2-1.3,0.3-1.8,0.3c-0.5,0-1,0.1-1.4,0.1c-1.3,0-2.4-0.3-3.2-0.8c-0.8-0.6-1.3-1.3-1.4-2.4l-0.1-1.3
		c-0.9,1.5-2.1,2.7-3.6,3.4C-61.9,508.4-63.5,508.8-65.2,508.8z M-63.1,502.4c1,0,2-0.3,3-0.9c1-0.6,1.7-1.5,2.2-2.5v-5.2
		c-0.5-1.3-1.2-2.3-2.3-3.1c-1.1-0.8-2.1-1.2-3.3-1.2c-0.8,0-1.6,0.2-2.2,0.5c-0.7,0.4-1.3,0.8-1.8,1.4c-0.5,0.6-0.9,1.3-1.2,2.1
		c-0.3,0.8-0.4,1.6-0.4,2.5c0,0.9,0.1,1.8,0.4,2.5c0.3,0.8,0.7,1.5,1.2,2c0.5,0.6,1.1,1,1.9,1.3C-64.8,502.2-64,502.4-63.1,502.4z"
		/>
	<path fill="#009DA5" d="M-37.5,508.8c-1.2,0-2.4-0.2-3.4-0.6c-1.1-0.4-2-0.9-2.7-1.7c-0.8-0.7-1.4-1.5-1.8-2.5
		c-0.4-1-0.7-2-0.7-3.1c0-1.2,0.3-2.3,0.8-3.4c0.5-1,1.3-1.9,2.2-2.6c0.9-0.7,2.1-1.3,3.4-1.7c1.3-0.4,2.7-0.6,4.3-0.6
		c1,0,2,0.1,3,0.3c1,0.2,1.8,0.4,2.5,0.8v-1.1c0-2.9-1.7-4.3-5-4.3c-1.4,0-2.6,0.2-3.9,0.7c-1.2,0.5-2.5,1.1-3.9,2.1l-2.2-4.7
		c1.6-1.1,3.3-1.9,5.1-2.4c1.8-0.5,3.6-0.8,5.6-0.8c3.7,0,6.6,0.9,8.7,2.6c2,1.8,3.1,4.3,3.1,7.7v6.4c0,0.8,0.1,1.3,0.4,1.6
		c0.2,0.3,0.7,0.5,1.3,0.5v6.4c-0.7,0.2-1.3,0.3-1.8,0.3s-1,0.1-1.5,0.1c-1.4,0-2.5-0.3-3.2-0.8c-0.7-0.6-1.2-1.3-1.4-2.3l-0.1-1.1
		c-1.1,1.4-2.4,2.5-3.9,3.3C-34.2,508.4-35.8,508.8-37.5,508.8z M-35.3,503.3c0.8,0,1.6-0.1,2.4-0.4c0.8-0.3,1.4-0.7,1.9-1.1
		c0.7-0.6,1.1-1.2,1.1-1.8v-2.4c-0.7-0.3-1.4-0.4-2.1-0.6c-0.8-0.1-1.5-0.2-2.1-0.2c-1.4,0-2.5,0.3-3.4,0.9
		c-0.9,0.6-1.3,1.4-1.3,2.5c0,0.9,0.3,1.7,1,2.2C-37.3,503-36.4,503.3-35.3,503.3z"/>
	<path fill="#009DA5" d="M-6.6,508.8c-1.7,0-3.3-0.3-4.7-1c-1.4-0.6-2.7-1.5-3.7-2.7c-1-1.2-1.8-2.5-2.4-4.1
		c-0.6-1.6-0.9-3.3-0.9-5.1c0-1.8,0.3-3.5,0.8-5.1c0.5-1.6,1.3-2.9,2.3-4.1c1-1.1,2.1-2.1,3.5-2.7c1.3-0.7,2.8-1,4.4-1
		c1.7,0,3.3,0.4,4.7,1.2c1.4,0.8,2.5,1.9,3.2,3.3v-13.7h7.6v26c0,0.8,0.1,1.3,0.4,1.6c0.2,0.3,0.7,0.5,1.3,0.5v6.4
		c-0.7,0.2-1.3,0.3-1.8,0.3c-0.5,0-1,0.1-1.4,0.1c-1.3,0-2.4-0.3-3.2-0.8c-0.8-0.6-1.3-1.3-1.4-2.4l-0.1-1.3
		c-0.9,1.5-2.1,2.7-3.6,3.4C-3.3,508.4-4.9,508.8-6.6,508.8z M-4.6,502.4c1,0,2-0.3,3-0.9c1-0.6,1.7-1.5,2.2-2.5v-5.2
		c-0.5-1.3-1.2-2.3-2.3-3.1c-1.1-0.8-2.1-1.2-3.3-1.2c-0.8,0-1.6,0.2-2.2,0.5c-0.7,0.4-1.3,0.8-1.8,1.4c-0.5,0.6-0.9,1.3-1.2,2.1
		c-0.3,0.8-0.4,1.6-0.4,2.5c0,0.9,0.1,1.8,0.4,2.5c0.3,0.8,0.7,1.5,1.2,2c0.5,0.6,1.1,1,1.9,1.3C-6.2,502.2-5.4,502.4-4.6,502.4z"/>
	<path fill="#009DA5" d="M25.8,508.8c-2.1,0-4-0.3-5.6-1c-1.7-0.7-3-1.6-4.2-2.8c-1.1-1.2-2-2.5-2.6-4.1c-0.6-1.6-0.9-3.2-0.9-4.9
		c0-1.7,0.3-3.3,0.9-4.9s1.4-2.9,2.6-4.1c1.1-1.2,2.5-2.1,4.2-2.8c1.7-0.7,3.5-1.1,5.6-1.1c2.1,0,4,0.4,5.6,1.1
		c1.6,0.7,3,1.7,4.2,2.8c1.1,1.2,2,2.6,2.6,4.1c0.6,1.6,0.9,3.2,0.9,4.9c0,1.7-0.3,3.3-0.9,4.9c-0.6,1.6-1.4,2.9-2.6,4.1
		c-1.1,1.2-2.5,2.1-4.2,2.8C29.8,508.4,27.9,508.8,25.8,508.8z M20.2,495.9c0,2,0.5,3.5,1.6,4.7c1,1.2,2.4,1.8,4,1.8
		c0.8,0,1.5-0.2,2.2-0.5c0.7-0.3,1.2-0.8,1.7-1.3c0.5-0.6,0.9-1.3,1.2-2.1c0.3-0.8,0.4-1.7,0.4-2.6c0-2-0.5-3.5-1.6-4.7
		c-1-1.2-2.3-1.8-3.9-1.8c-0.8,0-1.5,0.2-2.2,0.5c-0.7,0.3-1.3,0.8-1.7,1.3c-0.5,0.6-0.9,1.3-1.2,2.1
		C20.4,494.1,20.2,495,20.2,495.9z"/>
	<path fill="#009DA5" d="M52.5,508.8c-2.1,0-4.2-0.3-6.2-1c-2-0.7-3.8-1.7-5.2-3l2.7-4.6c1.5,1,3,1.8,4.4,2.4
		c1.4,0.6,2.8,0.9,4.1,0.9c1,0,1.7-0.2,2.3-0.5c0.5-0.3,0.8-0.9,0.8-1.5c0-0.7-0.3-1.2-1-1.6c-0.7-0.4-1.9-0.8-3.6-1.3
		c-1.7-0.5-3.1-0.9-4.2-1.4c-1.1-0.4-2.1-0.9-2.8-1.5c-0.7-0.5-1.2-1.1-1.6-1.8c-0.3-0.7-0.5-1.5-0.5-2.5c0-1.3,0.3-2.4,0.8-3.4
		c0.5-1,1.2-1.9,2.1-2.6c0.9-0.7,1.9-1.3,3.1-1.7c1.2-0.4,2.5-0.6,3.9-0.6c1.9,0,3.6,0.3,5.2,0.8c1.6,0.5,3.2,1.4,4.7,2.7l-2.9,4.5
		c-1.4-1-2.7-1.7-3.8-2.1c-1.1-0.4-2.2-0.7-3.2-0.7c-0.8,0-1.5,0.2-2.1,0.5c-0.6,0.3-0.8,0.9-0.8,1.6c0,0.7,0.3,1.2,0.9,1.6
		c0.6,0.3,1.8,0.7,3.4,1.1c1.8,0.5,3.2,0.9,4.5,1.4c1.2,0.5,2.2,1,2.9,1.6c0.8,0.6,1.3,1.3,1.7,2c0.3,0.8,0.5,1.7,0.5,2.7
		c0,2.5-0.9,4.4-2.7,5.9C58.1,508,55.6,508.8,52.5,508.8z"/>
	<path fill="#009DA5" d="M87.6,508.8c-1.7,0-3.3-0.3-4.7-1c-1.4-0.6-2.7-1.5-3.7-2.7c-1-1.2-1.8-2.5-2.4-4.1
		c-0.6-1.6-0.9-3.3-0.9-5.1c0-1.8,0.3-3.5,0.8-5.1c0.5-1.6,1.3-2.9,2.3-4.1c1-1.1,2.1-2.1,3.5-2.7c1.3-0.7,2.8-1,4.4-1
		c1.7,0,3.3,0.4,4.7,1.2c1.4,0.8,2.5,1.9,3.2,3.3v-13.7h7.6v26c0,0.8,0.1,1.3,0.4,1.6c0.2,0.3,0.7,0.5,1.3,0.5v6.4
		c-0.7,0.2-1.3,0.3-1.8,0.3c-0.5,0-1,0.1-1.4,0.1c-1.3,0-2.4-0.3-3.2-0.8c-0.8-0.6-1.3-1.3-1.4-2.4l-0.1-1.3
		c-0.9,1.5-2.1,2.7-3.6,3.4C90.9,508.4,89.3,508.8,87.6,508.8z M89.6,502.4c1,0,2-0.3,3-0.9c1-0.6,1.7-1.5,2.2-2.5v-5.2
		c-0.5-1.3-1.2-2.3-2.3-3.1c-1.1-0.8-2.1-1.2-3.3-1.2c-0.8,0-1.6,0.2-2.2,0.5c-0.7,0.4-1.3,0.8-1.8,1.4c-0.5,0.6-0.9,1.3-1.2,2.1
		c-0.3,0.8-0.4,1.6-0.4,2.5c0,0.9,0.1,1.8,0.4,2.5c0.3,0.8,0.7,1.5,1.2,2c0.5,0.6,1.1,1,1.9,1.3C88,502.2,88.8,502.4,89.6,502.4z"/>
	<path fill="#009DA5" d="M120,508.8c-2.1,0-3.9-0.3-5.6-1c-1.7-0.7-3.1-1.6-4.2-2.8c-1.1-1.2-2-2.5-2.6-4c-0.6-1.5-0.9-3.1-0.9-4.8
		c0-1.8,0.3-3.5,0.9-5.1c0.6-1.6,1.5-3,2.6-4.2c1.1-1.2,2.5-2.1,4.2-2.8c1.7-0.7,3.5-1,5.6-1c2.1,0,4,0.3,5.6,1
		c1.6,0.7,3,1.6,4.2,2.8c1.1,1.2,2,2.5,2.6,4.1c0.6,1.5,0.9,3.2,0.9,4.9c0,0.4,0,0.9,0,1.3c0,0.4-0.1,0.8-0.1,1.1h-18.3
		c0.1,1.7,0.7,2.9,1.8,3.8c1.1,0.9,2.3,1.3,3.7,1.3c1.1,0,2.2-0.3,3.2-0.8c1-0.5,1.7-1.3,2.1-2.2l6.4,1.8c-1,2-2.5,3.5-4.5,4.8
		C125.4,508.1,122.9,508.8,120,508.8z M125.3,493.6c-0.2-1.6-0.7-2.8-1.7-3.7c-1-0.9-2.2-1.4-3.6-1.4c-1.5,0-2.7,0.5-3.7,1.4
		c-1,0.9-1.5,2.2-1.7,3.7H125.3z"/>
	<path fill="#009DA5" d="M163.4,490c-1.8,0-3.5,0.3-5,0.9c-1.5,0.6-2.5,1.4-3.2,2.5v14.9h-7.6v-24.8h6.9v5c0.9-1.7,1.9-3,3.3-3.9
		s2.8-1.4,4.3-1.5c0.3,0,0.6,0,0.8,0s0.3,0,0.5,0V490z"/>
	<path fill="#009DA5" d="M173.3,508.8c-1.2,0-2.4-0.2-3.4-0.6c-1.1-0.4-2-0.9-2.7-1.7c-0.8-0.7-1.4-1.5-1.8-2.5
		c-0.4-1-0.7-2-0.7-3.1c0-1.2,0.3-2.3,0.8-3.4c0.5-1,1.3-1.9,2.2-2.6c0.9-0.7,2.1-1.3,3.4-1.7c1.3-0.4,2.7-0.6,4.3-0.6
		c1,0,2,0.1,3,0.3c1,0.2,1.8,0.4,2.5,0.8v-1.1c0-2.9-1.7-4.3-5-4.3c-1.4,0-2.6,0.2-3.9,0.7c-1.2,0.5-2.5,1.1-3.9,2.1l-2.2-4.7
		c1.6-1.1,3.3-1.9,5.1-2.4c1.8-0.5,3.6-0.8,5.6-0.8c3.7,0,6.6,0.9,8.7,2.6c2,1.8,3.1,4.3,3.1,7.7v6.4c0,0.8,0.1,1.3,0.4,1.6
		c0.2,0.3,0.7,0.5,1.3,0.5v6.4c-0.7,0.2-1.3,0.3-1.8,0.3s-1,0.1-1.5,0.1c-1.4,0-2.5-0.3-3.2-0.8c-0.7-0.6-1.2-1.3-1.4-2.3l-0.1-1.1
		c-1.1,1.4-2.4,2.5-3.9,3.3C176.6,508.4,175,508.8,173.3,508.8z M175.5,503.3c0.8,0,1.6-0.1,2.4-0.4c0.8-0.3,1.4-0.7,1.9-1.1
		c0.7-0.6,1.1-1.2,1.1-1.8v-2.4c-0.7-0.3-1.4-0.4-2.1-0.6c-0.8-0.1-1.5-0.2-2.1-0.2c-1.4,0-2.5,0.3-3.4,0.9
		c-0.9,0.6-1.3,1.4-1.3,2.5c0,0.9,0.3,1.7,1,2.2C173.6,503,174.4,503.3,175.5,503.3z"/>
	<path fill="#009DA5" d="M204.2,508.8c-1.7,0-3.3-0.3-4.7-1c-1.4-0.6-2.7-1.5-3.7-2.7c-1-1.2-1.8-2.5-2.4-4.1
		c-0.6-1.6-0.9-3.3-0.9-5.1c0-1.8,0.3-3.5,0.8-5.1c0.5-1.6,1.3-2.9,2.3-4.1c1-1.1,2.1-2.1,3.5-2.7c1.3-0.7,2.8-1,4.4-1
		c1.7,0,3.3,0.4,4.7,1.2c1.4,0.8,2.5,1.9,3.2,3.3v-13.7h7.6v26c0,0.8,0.1,1.3,0.4,1.6c0.2,0.3,0.7,0.5,1.3,0.5v6.4
		c-0.7,0.2-1.3,0.3-1.8,0.3c-0.5,0-1,0.1-1.4,0.1c-1.3,0-2.4-0.3-3.2-0.8c-0.8-0.6-1.3-1.3-1.4-2.4l-0.1-1.3
		c-0.9,1.5-2.1,2.7-3.6,3.4C207.5,508.4,205.9,508.8,204.2,508.8z M206.2,502.4c1,0,2-0.3,3-0.9c1-0.6,1.7-1.5,2.2-2.5v-5.2
		c-0.5-1.3-1.2-2.3-2.3-3.1c-1.1-0.8-2.1-1.2-3.3-1.2c-0.8,0-1.6,0.2-2.2,0.5c-0.7,0.4-1.3,0.8-1.8,1.4c-0.5,0.6-0.9,1.3-1.2,2.1
		c-0.3,0.8-0.4,1.6-0.4,2.5c0,0.9,0.1,1.8,0.4,2.5c0.3,0.8,0.7,1.5,1.2,2c0.5,0.6,1.1,1,1.9,1.3
		C204.6,502.2,205.4,502.4,206.2,502.4z"/>
	<path fill="#009DA5" d="M231.8,508.8c-1.2,0-2.4-0.2-3.4-0.6c-1.1-0.4-2-0.9-2.7-1.7c-0.8-0.7-1.4-1.5-1.8-2.5
		c-0.4-1-0.7-2-0.7-3.1c0-1.2,0.3-2.3,0.8-3.4c0.5-1,1.3-1.9,2.2-2.6c0.9-0.7,2.1-1.3,3.4-1.7c1.3-0.4,2.7-0.6,4.3-0.6
		c1,0,2,0.1,3,0.3c1,0.2,1.8,0.4,2.5,0.8v-1.1c0-2.9-1.7-4.3-5-4.3c-1.4,0-2.6,0.2-3.9,0.7c-1.2,0.5-2.5,1.1-3.9,2.1l-2.2-4.7
		c1.6-1.1,3.3-1.9,5.1-2.4c1.8-0.5,3.6-0.8,5.6-0.8c3.7,0,6.6,0.9,8.7,2.6c2,1.8,3.1,4.3,3.1,7.7v6.4c0,0.8,0.1,1.3,0.4,1.6
		c0.2,0.3,0.7,0.5,1.3,0.5v6.4c-0.7,0.2-1.3,0.3-1.8,0.3s-1,0.1-1.5,0.1c-1.4,0-2.5-0.3-3.2-0.8c-0.7-0.6-1.2-1.3-1.4-2.3l-0.1-1.1
		c-1.1,1.4-2.4,2.5-3.9,3.3C235.1,508.4,233.5,508.8,231.8,508.8z M234,503.3c0.8,0,1.6-0.1,2.4-0.4c0.8-0.3,1.4-0.7,1.9-1.1
		c0.7-0.6,1.1-1.2,1.1-1.8v-2.4c-0.7-0.3-1.4-0.4-2.1-0.6c-0.8-0.1-1.5-0.2-2.1-0.2c-1.4,0-2.5,0.3-3.4,0.9
		c-0.9,0.6-1.3,1.4-1.3,2.5c0,0.9,0.3,1.7,1,2.2C232.1,503,233,503.3,234,503.3z"/>
	<path fill="#009DA5" d="M268.2,490c-1.8,0-3.5,0.3-5,0.9c-1.5,0.6-2.5,1.4-3.2,2.5v14.9h-7.6v-24.8h6.9v5c0.9-1.7,1.9-3,3.3-3.9
		s2.8-1.4,4.3-1.5c0.3,0,0.6,0,0.8,0c0.2,0,0.3,0,0.5,0V490z"/>
	<path fill="#009DA5" d="M282,508.8c-2.1,0-3.9-0.3-5.6-1c-1.7-0.7-3.1-1.6-4.2-2.8c-1.1-1.2-2-2.5-2.6-4c-0.6-1.5-0.9-3.1-0.9-4.8
		c0-1.8,0.3-3.5,0.9-5.1c0.6-1.6,1.5-3,2.6-4.2c1.1-1.2,2.5-2.1,4.2-2.8c1.7-0.7,3.5-1,5.6-1c2.1,0,4,0.3,5.6,1
		c1.6,0.7,3,1.6,4.2,2.8c1.1,1.2,2,2.5,2.6,4.1c0.6,1.5,0.9,3.2,0.9,4.9c0,0.4,0,0.9,0,1.3c0,0.4-0.1,0.8-0.1,1.1h-18.3
		c0.1,1.7,0.7,2.9,1.8,3.8c1.1,0.9,2.3,1.3,3.7,1.3c1.1,0,2.2-0.3,3.2-0.8c1-0.5,1.7-1.3,2.1-2.2l6.4,1.8c-1,2-2.5,3.5-4.5,4.8
		C287.3,508.1,284.8,508.8,282,508.8z M287.2,493.6c-0.2-1.6-0.7-2.8-1.7-3.7c-1-0.9-2.2-1.4-3.6-1.4c-1.5,0-2.7,0.5-3.7,1.4
		c-1,0.9-1.5,2.2-1.7,3.7H287.2z"/>
	<path fill="#009DA5" d="M308.4,508.8c-2.1,0-4.2-0.3-6.2-1c-2-0.7-3.8-1.7-5.2-3l2.7-4.6c1.5,1,3,1.8,4.4,2.4
		c1.4,0.6,2.8,0.9,4.1,0.9c1,0,1.7-0.2,2.3-0.5c0.5-0.3,0.8-0.9,0.8-1.5c0-0.7-0.3-1.2-1-1.6c-0.7-0.4-1.9-0.8-3.6-1.3
		c-1.7-0.5-3.1-0.9-4.2-1.4c-1.1-0.4-2.1-0.9-2.8-1.5c-0.7-0.5-1.2-1.1-1.6-1.8c-0.3-0.7-0.5-1.5-0.5-2.5c0-1.3,0.3-2.4,0.8-3.4
		s1.2-1.9,2.1-2.6c0.9-0.7,1.9-1.3,3.1-1.7c1.2-0.4,2.5-0.6,3.9-0.6c1.9,0,3.6,0.3,5.2,0.8c1.6,0.5,3.2,1.4,4.7,2.7l-2.9,4.5
		c-1.4-1-2.7-1.7-3.8-2.1c-1.1-0.4-2.2-0.7-3.2-0.7c-0.8,0-1.5,0.2-2.1,0.5c-0.6,0.3-0.8,0.9-0.8,1.6c0,0.7,0.3,1.2,0.9,1.6
		c0.6,0.3,1.8,0.7,3.4,1.1c1.8,0.5,3.2,0.9,4.5,1.4c1.2,0.5,2.2,1,3,1.6c0.8,0.6,1.3,1.3,1.7,2c0.3,0.8,0.5,1.7,0.5,2.7
		c0,2.5-0.9,4.4-2.7,5.9C314,508,311.5,508.8,308.4,508.8z"/>
</g>
<g>
	<path fill="#472276" d="M-24,391c-6.1,0.1-11.7,1.1-16.6,3c-5,1.9-8.6,4.8-10.8,8.6v49.9h-25.4v-83.2h23.3v16.8
		c2.9-5.6,6.5-10,11-13.2c4.5-3.2,9.3-4.8,14.3-4.9c1.2,0,2,0,2.5,0c0.5,0,1.1,0.1,1.6,0.2V391z"/>
	<path fill="#472276" d="M9.1,454.1c-4.1,0-7.9-0.7-11.5-2c-3.5-1.3-6.6-3.2-9.1-5.5c-2.5-2.4-4.5-5.2-6-8.4
		c-1.5-3.2-2.2-6.7-2.2-10.5c0-4.1,0.9-7.9,2.6-11.3c1.7-3.4,4.2-6.3,7.4-8.7c3.2-2.4,6.9-4.3,11.3-5.7c4.3-1.4,9.1-2.1,14.4-2.1
		c3.5,0,6.9,0.3,10.1,0.9c3.3,0.6,6.1,1.5,8.6,2.6v-3.8c0-9.6-5.5-14.4-16.6-14.4c-4.5,0-8.9,0.8-13,2.3c-4.1,1.5-8.5,3.8-13,6.9
		l-7.4-15.8c5.5-3.6,11.2-6.3,17.1-8.1c5.9-1.8,12.2-2.7,18.9-2.7c12.6,0,22.3,3,29.2,8.9c6.9,5.9,10.3,14.6,10.3,26V424
		c0,2.5,0.4,4.3,1.2,5.3c0.8,1,2.2,1.6,4.2,1.8v21.4c-2.2,0.5-4.2,0.9-6,1c-1.8,0.2-3.4,0.2-4.9,0.2c-4.8,0-8.3-0.9-10.8-2.8
		c-2.4-1.8-4-4.5-4.6-7.8l-0.5-3.8c-3.7,4.8-8.1,8.4-13.2,10.9C20.2,452.8,14.8,454.1,9.1,454.1z M16.6,435.9c2.7,0,5.4-0.5,8-1.4
		c2.6-1,4.7-2.2,6.4-3.8c2.4-1.9,3.6-3.9,3.6-6v-7.9c-2.2-0.8-4.6-1.5-7.2-2c-2.6-0.5-5-0.7-7.2-0.7c-4.7,0-8.5,1.1-11.5,3.2
		c-3,2.1-4.5,4.9-4.5,8.2c0,3.1,1.2,5.6,3.5,7.5C10,434.9,13,435.9,16.6,435.9z"/>
	<path fill="#472276" d="M112.9,454.1c-5.7,0-11-1.1-15.8-3.2c-4.8-2.2-9-5.2-12.4-9.1c-3.5-3.9-6.2-8.5-8.2-13.7
		c-2-5.2-2.9-11-2.9-17.2c0-6,0.9-11.7,2.7-17c1.8-5.3,4.3-9.8,7.6-13.7c3.3-3.9,7.2-6.9,11.6-9.1c4.5-2.2,9.4-3.3,14.8-3.3
		c5.8,0,11.1,1.4,15.8,4.1c4.7,2.7,8.3,6.4,10.9,11.1v-46.1h25.4V424c0,2.5,0.4,4.3,1.2,5.3c0.8,1,2.2,1.6,4.2,1.8v21.4
		c-2.3,0.5-4.3,0.9-6,1c-1.7,0.2-3.3,0.2-4.8,0.2c-4.4,0-8-0.9-10.8-2.8c-2.7-1.8-4.3-4.5-4.8-8l-0.5-4.3c-3,5.2-6.9,9-12,11.6
		C124,452.8,118.6,454.1,112.9,454.1z M119.7,432.7c3.5,0,6.8-1,10.1-3.1c3.2-2.1,5.7-4.9,7.4-8.5v-17.4c-1.6-4.2-4.1-7.7-7.7-10.4
		c-3.5-2.7-7.2-4-11-4c-2.7,0-5.3,0.6-7.5,1.8c-2.3,1.2-4.3,2.8-5.9,4.8c-1.7,2-3,4.3-3.9,7c-0.9,2.6-1.3,5.4-1.3,8.4
		c0,3.1,0.5,5.9,1.5,8.6c1,2.6,2.4,4.9,4.1,6.8c1.7,1.9,3.9,3.4,6.3,4.4C114.2,432.2,116.9,432.7,119.7,432.7z"/>
	<path fill="#472276" d="M205.6,454.1c-4.1,0-7.9-0.7-11.5-2c-3.5-1.3-6.6-3.2-9.1-5.5c-2.5-2.4-4.5-5.2-6-8.4
		c-1.5-3.2-2.2-6.7-2.2-10.5c0-4.1,0.9-7.9,2.6-11.3c1.7-3.4,4.2-6.3,7.4-8.7c3.2-2.4,6.9-4.3,11.3-5.7c4.3-1.4,9.1-2.1,14.4-2.1
		c3.5,0,6.9,0.3,10.1,0.9c3.3,0.6,6.1,1.5,8.6,2.6v-3.8c0-9.6-5.5-14.4-16.6-14.4c-4.5,0-8.9,0.8-13,2.3c-4.1,1.5-8.5,3.8-13,6.9
		l-7.4-15.8c5.5-3.6,11.2-6.3,17.1-8.1c5.9-1.8,12.2-2.7,18.9-2.7c12.6,0,22.3,3,29.2,8.9c6.9,5.9,10.3,14.6,10.3,26V424
		c0,2.5,0.4,4.3,1.2,5.3c0.8,1,2.2,1.6,4.2,1.8v21.4c-2.2,0.5-4.2,0.9-6,1c-1.8,0.2-3.4,0.2-4.9,0.2c-4.8,0-8.3-0.9-10.8-2.8
		c-2.4-1.8-4-4.5-4.6-7.8l-0.5-3.8c-3.7,4.8-8.1,8.4-13.2,10.9C216.7,452.8,211.3,454.1,205.6,454.1z M213,435.9
		c2.7,0,5.4-0.5,8-1.4c2.6-1,4.7-2.2,6.4-3.8c2.4-1.9,3.6-3.9,3.6-6v-7.9c-2.2-0.8-4.6-1.5-7.2-2c-2.6-0.5-5-0.7-7.2-0.7
		c-4.7,0-8.5,1.1-11.5,3.2c-3,2.1-4.5,4.9-4.5,8.2c0,3.1,1.2,5.6,3.5,7.5C206.5,434.9,209.4,435.9,213,435.9z"/>
	<path fill="#472276" d="M327.6,391c-6.1,0.1-11.7,1.1-16.6,3c-5,1.9-8.6,4.8-10.8,8.6v49.9h-25.4v-83.2h23.3v16.8
		c2.9-5.6,6.5-10,11-13.2c4.5-3.2,9.3-4.8,14.3-4.9c1.2,0,2,0,2.5,0c0.5,0,1.1,0.1,1.6,0.2V391z"/>
	<path fill="#472276" d="M392.1,448.1c-3.5,1.5-7.5,2.9-12,4.1c-4.5,1.3-9,1.9-13.5,1.9c-3.2,0-6.2-0.4-9-1.2
		c-2.8-0.8-5.3-2.1-7.4-3.8c-2.1-1.7-3.8-4-5-6.9c-1.2-2.9-1.8-6.3-1.8-10.3v-43.4h-10.6v-19.2h10.6v-26.5h25.4v26.5h17v19.2h-17
		v34.7c0,2.7,0.7,4.7,2.1,5.9c1.4,1.2,3.1,1.8,5.2,1.8c1.9,0,3.9-0.3,5.9-1c2-0.6,3.7-1.3,5.2-2.1L392.1,448.1z"/>
	<path fill="#472276" d="M439.5,454.1c-7.1,0-13.4-1.2-18.9-3.5c-5.5-2.3-10.2-5.5-14-9.4c-3.8-4-6.7-8.6-8.6-13.8
		c-2-5.2-2.9-10.7-2.9-16.4c0-5.7,1-11.2,2.9-16.4c2-5.2,4.8-9.8,8.6-13.8c3.8-4,8.5-7.1,14-9.5c5.5-2.4,11.9-3.6,18.9-3.6
		c7.1,0,13.4,1.2,18.9,3.6c5.5,2.4,10.1,5.5,13.9,9.5c3.8,4,6.7,8.6,8.7,13.8c2,5.2,3,10.7,3,16.4c0,5.7-1,11.2-2.9,16.4
		c-2,5.2-4.8,9.8-8.6,13.8c-3.8,4-8.5,7.1-14,9.4C452.9,452.9,446.5,454.1,439.5,454.1z M420.9,411c0,6.6,1.7,11.8,5.2,15.8
		c3.5,4,7.9,5.9,13.3,5.9c2.6,0,5.1-0.5,7.3-1.6c2.2-1.1,4.1-2.5,5.8-4.4c1.6-1.9,2.9-4.2,3.9-6.9c1-2.7,1.4-5.6,1.4-8.8
		c0-6.5-1.7-11.8-5.2-15.8c-3.5-4-7.9-5.9-13.2-5.9c-2.6,0-5.1,0.5-7.4,1.6c-2.3,1.1-4.2,2.5-5.9,4.4c-1.6,1.9-2.9,4.2-3.9,6.9
		C421.4,404.9,420.9,407.8,420.9,411z"/>
	<path fill="#472276" d="M576.7,452.5h-25.4v-46.7c0-5.5-1-9.5-3.1-12c-2.1-2.5-4.8-3.7-8.2-3.7c-1.8,0-3.6,0.4-5.4,1.1
		c-1.8,0.7-3.5,1.8-5.2,3.1c-1.7,1.3-3.2,2.9-4.5,4.7c-1.3,1.8-2.4,3.8-3.1,5.9v47.7h-25.4v-83.2h22.8v13.9c3.1-5,7.4-8.8,13-11.5
		c5.6-2.7,12-4,19.3-4c5.4,0,9.7,1,13,2.9c3.3,2,5.8,4.5,7.6,7.6c1.8,3.1,3,6.5,3.6,10.2c0.6,3.7,0.9,7.3,0.9,10.8V452.5z"/>
	<path fill="#472276" d="M617.1,454.1c-4.1,0-7.9-0.7-11.5-2c-3.5-1.3-6.6-3.2-9.1-5.5c-2.5-2.4-4.5-5.2-6-8.4
		c-1.5-3.2-2.2-6.7-2.2-10.5c0-4.1,0.9-7.9,2.6-11.3c1.7-3.4,4.2-6.3,7.4-8.7c3.2-2.4,6.9-4.3,11.2-5.7c4.3-1.4,9.1-2.1,14.4-2.1
		c3.5,0,6.9,0.3,10.1,0.9c3.3,0.6,6.1,1.5,8.6,2.6v-3.8c0-9.6-5.5-14.4-16.6-14.4c-4.5,0-8.9,0.8-13,2.3c-4.1,1.5-8.5,3.8-13,6.9
		l-7.4-15.8c5.5-3.6,11.2-6.3,17.1-8.1c5.9-1.8,12.2-2.7,18.9-2.7c12.6,0,22.3,3,29.2,8.9c6.9,5.9,10.3,14.6,10.3,26V424
		c0,2.5,0.4,4.3,1.2,5.3c0.8,1,2.2,1.6,4.2,1.8v21.4c-2.2,0.5-4.2,0.9-6,1c-1.8,0.2-3.4,0.2-4.9,0.2c-4.8,0-8.3-0.9-10.8-2.8
		c-2.4-1.8-4-4.5-4.6-7.8l-0.5-3.8c-3.7,4.8-8.1,8.4-13.2,10.9C628.2,452.8,622.8,454.1,617.1,454.1z M624.5,435.9
		c2.7,0,5.4-0.5,8-1.4c2.6-1,4.7-2.2,6.4-3.8c2.4-1.9,3.6-3.9,3.6-6v-7.9c-2.2-0.8-4.6-1.5-7.2-2c-2.6-0.5-5-0.7-7.2-0.7
		c-4.6,0-8.5,1.1-11.5,3.2c-3,2.1-4.5,4.9-4.5,8.2c0,3.1,1.2,5.6,3.5,7.5C618,434.9,620.9,435.9,624.5,435.9z"/>
</g>
</svg>
